<?xml version="1.0" encoding="utf-8"?>
<!-- Generator: Adobe Illustrator 22.1.0, SVG Export Plug-In . SVG Version: 6.00 Build 0)  -->
<svg version="1.1" id="grid" xmlns="http://www.w3.org/2000/svg" xmlns:xlink="http://www.w3.org/1999/xlink" x="0px" y="0px"
	 viewBox="0 0 64 64" style="enable-background:new 0 0 64 64;" xml:space="preserve">
<g>
	<path d="M12.2,21.6c0.2,0.1,0.4,0.2,0.6,0.2c0.2,0,0.4-0.1,0.6-0.2c2.5-2,4.3-0.8,4.9-0.3l2.2,4.5c0,0,0.1,0.1,0.1,0.1
		c0,0.8-0.2,2.9-3.1,3.7c-0.4,0.1-0.7,0.5-0.7,0.9c0,0.4,0.3,0.8,0.7,1c0.1,0,1,0.3,2.4,0.3c1,0,2.2-0.2,3.4-0.9
		c1.6-1,2.7-2.6,3.2-4.9c1.7-0.5,3.2-1.4,4.5-2.6c0.1-0.1,0.1-0.1,0.2-0.2c0.5-0.5,0.9-1,1.3-1.5l4.1-5.9c0.2-0.3,0.2-0.7,0.1-1
		s-0.5-0.5-0.9-0.6l-7.2-0.3c-0.8,0-1.5,0-2.3,0.2c0,0,0,0,0,0c-1.8,0.3-3.5,1.1-4.9,2.2c-2.2-0.9-4.2-1-5.9-0.2
		c-2.8,1.2-3.7,4.3-3.8,4.4C11.7,20.9,11.9,21.4,12.2,21.6z M20.3,20.8c0.5-0.8,1.1-1.6,1.8-2.3c0.5-0.4,0.9-0.8,1.5-1.1
		c1.5,2,2.6,4.1,3.2,6.5c-0.5,0.2-1,0.3-1.6,0.5c-1.1,0.1-2.1,0.2-3.1,0.1L20.3,20.8z M26.3,16.3c1.4,1.8,2.4,3.9,3,6.1
		c-0.2,0.2-0.5,0.4-0.7,0.6c-0.7-2.3-1.8-4.4-3.2-6.4C25.7,16.4,26,16.4,26.3,16.3z M22.3,29.3c-0.3,0.2-0.6,0.3-1,0.4
		c0.9-1,1.3-2.2,1.3-3.2c0.2,0,0.5,0,0.7,0c0.3,0,0.6,0,0.9-0.1C23.9,27.8,23.2,28.8,22.3,29.3z M34,16.2L31,20.6c0,0,0,0,0,0
		c-0.6-1.6-1.3-3.2-2.3-4.6c0,0,0,0,0,0L34,16.2z M16.4,18c1-0.4,2.1-0.5,3.5-0.1c-0.4,0.4-0.7,0.9-1,1.3c-0.7-0.4-1.7-0.8-2.8-0.8
		c-0.2,0-0.4,0-0.6,0C15.8,18.3,16.1,18.1,16.4,18z"/>
	<path d="M10.7,29.3l2.4-0.7c0,0.1,0.1,0.3,0.2,0.4c0.2,0.2,0.5,0.3,0.8,0.3c0.1,0,0.2,0,0.3,0l4.7-1.5c0.3-0.1,0.5-0.3,0.6-0.6
		c0.1-0.3,0.1-0.6,0-0.8l-2.2-4.5c-0.1-0.3-0.4-0.5-0.7-0.5c-0.3-0.1-0.6,0-0.8,0.2l-4.2,3.2c-0.3,0.2-0.5,0.7-0.4,1.1
		c0,0.1,0.1,0.3,0.2,0.4l-1.7,1.4c-0.4,0.3-0.5,0.8-0.3,1.2C9.7,29.2,10.2,29.4,10.7,29.3z M16.1,23.9l1.2,2.4l-1.7,0.6
		c0-0.1-0.1-0.2-0.2-0.3c-0.2-0.2-0.5-0.4-0.8-0.4c0,0-0.1,0-0.1,0c0.1-0.2,0.1-0.5,0.1-0.7c0-0.1-0.1-0.2-0.1-0.3L16.1,23.9z"/>
	<path d="M59.9,9.1H4.1c-0.6,0-1,0.4-1,1v43.9c0,0.6,0.4,1,1,1h55.8c0.6,0,1-0.4,1-1V10.1C60.9,9.5,60.5,9.1,59.9,9.1z M58.9,52.9
		H5.1V11.1h53.8V52.9z"/>
	<path d="M7.8,51.1H12h6.4h5.2H30h5.2h6.4h5.2h6.4H56c0.6,0,1-0.4,1-1s-0.4-1-1-1h-1.7V27.9c0-0.6-0.4-1-1-1h-6.4c-0.6,0-1,0.4-1,1
		v21.2h-3.2v-18c0-0.6-0.4-1-1-1h-6.4c-0.6,0-1,0.4-1,1v18H31V34.9c0-0.6-0.4-1-1-1h-6.4c-0.6,0-1,0.4-1,1v14.2h-3.2v-9.2
		c0-0.6-0.4-1-1-1H12c-0.6,0-1,0.4-1,1v9.2H8.8V25.4c0-0.6-0.4-1-1-1s-1,0.4-1,1v24.8C6.8,50.7,7.3,51.1,7.8,51.1z M47.9,28.9h4.4
		v20.2h-4.4V28.9z M36.2,32.1h4.4v17h-4.4V32.1z M24.6,35.9H29v13.2h-4.4V35.9z M13,40.9h4.4v8.2H13V40.9z"/>
	<path d="M46.2,16H56c0.6,0,1-0.4,1-1s-0.4-1-1-1h-9.8c-0.6,0-1,0.4-1,1S45.7,16,46.2,16z"/>
	<path d="M44.2,18.8H56c0.6,0,1-0.4,1-1s-0.4-1-1-1H44.2c-0.6,0-1,0.4-1,1S43.7,18.8,44.2,18.8z"/>
	<path d="M56,19.5h-8.1c-0.6,0-1,0.4-1,1s0.4,1,1,1H56c0.6,0,1-0.4,1-1S56.6,19.5,56,19.5z"/>
</g>
</svg>
